<svg xmlns="http://www.w3.org/2000/svg" version="1.1" xmlns:xlink="http://www.w3.org/1999/xlink" xmlns:svgjs="http://svgjs.dev/svgjs" width="2000" height="1247" viewBox="0 0 2000 1247"><g transform="matrix(1,0,0,1,-1.2121212121212466,0.504858299595071)"><svg viewBox="0 0 396 247" data-background-color="#21232b" preserveAspectRatio="xMidYMid meet" height="1247" width="2000" xmlns="http://www.w3.org/2000/svg" xmlns:xlink="http://www.w3.org/1999/xlink"><g id="tight-bounds" transform="matrix(1,0,0,1,0.2400000000000091,-0.09999999999999432)"><svg viewBox="0 0 395.52 247.2" height="247.2" width="395.52"><g><svg></svg></g><g><svg viewBox="0 0 395.52 247.2" height="247.2" width="395.52"><mask id="54a776ce-0a62-4e22-ab05-4b709e86215b"><rect width="640" height="400" fill="white"></rect><g transform="matrix(1,0,0,1,142.20775441764476,37.08)"><svg viewBox="0 0 111.10449116471044 173.04" height="173.04" width="111.10449116471044"><g><svg viewBox="0 0 111.10449116471044 173.04" height="173.04" width="111.10449116471044"><g><svg viewBox="0 0 111.10449116471044 173.04" height="173.04" width="111.10449116471044"><g><svg viewBox="0 0 111.10449116471044 173.04" height="173.04" width="111.10449116471044"><g id="SvgjsG6738"><svg viewBox="0 0 111.10449116471044 173.04" height="173.04" width="111.10449116471044" id="SvgjsSvg6737"><g><svg viewBox="0 0 111.10449116471044 173.04" height="173.04" width="111.10449116471044"><g transform="matrix(1,0,0,1,0,0)"><svg width="111.10449116471044" viewBox="-1.02 -41.26 30.169999999999998 46.43" height="173.04" data-palette-color="#00b02b"><path d="M3.17 0.59L3.17 0.59Q2.98 0.39 2.98 0.05L2.98 0.05Q2.98-0.2 3-0.37 3.03-0.54 3.08-0.78L3.08-0.78Q3.32-1.9 3.32-3.05 3.32-4.2 3.42-5.32L3.42-5.32Q3.47-6.01 3.49-6.69 3.52-7.37 3.52-8.06L3.52-8.06Q3.52-12.11 3.27-16.14 3.03-20.17 3.03-24.27L3.03-24.27Q3.03-27.1 3.13-29.96 3.22-32.81 3.27-35.69L3.27-35.69Q3.71-35.94 4.35-35.89 4.98-35.84 5.37-36.33L5.37-36.33Q5.62-36.38 5.86-36.35 6.1-36.33 6.35-36.33L6.35-36.33Q6.88-36.33 7.37-36.67 7.86-37.01 8.45-37.26L8.45-37.26Q8.74-37.16 8.86-37.18 8.98-37.21 9.13-37.21L9.13-37.21Q9.28-37.21 9.77-36.87 10.25-36.52 10.84-36.08 11.43-35.64 11.94-35.25 12.45-34.86 12.6-34.77L12.6-34.77Q13.82-33.84 14.77-32.74 15.72-31.64 16.65-30.52L16.65-30.52Q17.53-29.39 18.55-28.25 19.58-27.1 20.56-26.12L20.56-26.12Q20.9-25.73 21.26-25.44 21.63-25.15 21.97-24.76L21.97-24.76Q22.12-24.56 22.24-24.34 22.36-24.12 22.51-23.88L22.51-23.88Q22.8-23.54 23.19-23.29 23.58-23.05 23.93-22.71L23.93-22.71Q24.17-22.51 24.66-21.92 25.15-21.34 25.15-21.04L25.15-21.04Q25.15-20.85 25.05-20.7 24.95-20.56 24.85-20.36L24.85-20.36Q24.8-20.21 24.8-19.92 24.8-19.63 24.76-19.53L24.76-19.53Q24.27-19.14 24.22-19.04 24.17-18.95 24.07-18.85L24.07-18.85Q23.93-18.65 23.71-18.53 23.49-18.41 23.39-18.16L23.39-18.16Q23.29-18.02 23.32-17.87 23.34-17.72 23.24-17.53L23.24-17.53Q23-16.99 22.46-16.5 21.92-16.02 21.53-15.43L21.53-15.43Q21-14.55 20.46-13.67 19.92-12.79 19.24-11.96L19.24-11.96Q18.95-11.57 18.63-11.21 18.31-10.84 18.02-10.45L18.02-10.45Q17.77-10.16 17.58-9.84 17.38-9.52 17.14-9.13L17.14-9.13Q16.6-8.45 16.11-7.79 15.63-7.13 15.09-6.45L15.09-6.45Q14.5-5.62 13.82-4.81 13.13-4 12.6-3.17L12.6-3.17Q12.06-2.29 11.47-1.56 10.89-0.83 10.21-0.15L10.21-0.15Q10.01 0 9.72 0.29 9.42 0.59 9.13 0.59L9.13 0.59Q8.94 0.59 8.81 0.44 8.69 0.29 8.45 0.29L8.45 0.29Q8.4 0.29 8.15 0.34 7.91 0.39 7.57 0.44L7.57 0.44 6.69 0.54Q5.91 0.93 5.57 0.9 5.22 0.88 4.88 0.93L4.88 0.93Q4.69 0.98 4.57 1.07 4.44 1.17 4.3 1.17L4.3 1.17Q3.96 1.17 3.76 0.85 3.56 0.54 3.17 0.59ZM17.82-20.51L17.82-20.51Q17.82-20.75 17.36-21.19 16.89-21.63 16.65-21.83L16.65-21.83Q16.31-22.12 15.84-22.39 15.38-22.66 15.09-23L15.09-23Q14.84-23.29 14.62-23.61 14.4-23.93 14.16-24.22L14.16-24.22Q13.28-25.2 12.38-26.17 11.47-27.15 10.79-28.32L10.79-28.32Q10.35-28.61 9.96-29 9.57-29.39 9.03-29.64L9.03-29.64Q8.94-29.35 8.96-29.03 8.98-28.71 8.98-28.42L8.98-28.42Q8.98-27.29 8.89-26.22 8.79-25.15 8.79-24.07L8.79-24.07Q8.79-21.44 8.91-18.87 9.03-16.31 9.03-13.72L9.03-13.72Q9.03-12.74 9.06-11.77 9.08-10.79 9.23-9.81L9.23-9.81Q9.13-9.52 9.13-9.28L9.13-9.28Q9.13-9.03 9.23-8.64L9.23-8.64Q9.62-8.89 9.89-9.25 10.16-9.62 10.4-9.96L10.4-9.96Q11.23-11.04 12.04-12.13 12.84-13.23 13.67-14.36L13.67-14.36Q14.21-15.09 14.77-15.8 15.33-16.5 15.87-17.29L15.87-17.29Q16.02-17.48 16.33-17.97 16.65-18.46 16.97-18.97 17.29-19.48 17.55-19.92 17.82-20.36 17.82-20.51Z" opacity="1" transform="matrix(1,0,0,1,0,0)" fill="black" class="wordmark-text-0" id="SvgjsPath6736" stroke-width="7" stroke="black" stroke-linejoin="round"></path></svg></g></svg></g></svg></g></svg></g></svg></g></svg></g></svg></g></mask><g transform="matrix(1,0,0,1,142.20775441764476,37.08)"><svg viewBox="0 0 111.10449116471044 173.04" height="173.04" width="111.10449116471044"><g><svg viewBox="0 0 111.10449116471044 173.04" height="173.04" width="111.10449116471044"><g><svg viewBox="0 0 111.10449116471044 173.04" height="173.04" width="111.10449116471044"><g><svg viewBox="0 0 111.10449116471044 173.04" height="173.04" width="111.10449116471044"><g id="textblocktransform"><svg viewBox="0 0 111.10449116471044 173.04" height="173.04" width="111.10449116471044" id="textblock"><g><svg viewBox="0 0 111.10449116471044 173.04" height="173.04" width="111.10449116471044"><g transform="matrix(1,0,0,1,0,0)"><svg width="111.10449116471044" viewBox="-1.02 -41.26 30.169999999999998 46.43" height="173.04" data-palette-color="#00b02b"><path d="M3.17 0.59L3.17 0.59Q2.98 0.39 2.98 0.05L2.98 0.05Q2.98-0.2 3-0.37 3.03-0.54 3.08-0.78L3.08-0.78Q3.32-1.9 3.32-3.05 3.32-4.2 3.42-5.32L3.42-5.32Q3.47-6.01 3.49-6.69 3.52-7.37 3.52-8.06L3.52-8.06Q3.52-12.11 3.27-16.14 3.03-20.17 3.03-24.27L3.03-24.27Q3.03-27.1 3.13-29.96 3.22-32.81 3.27-35.69L3.27-35.69Q3.71-35.94 4.35-35.89 4.98-35.84 5.37-36.33L5.37-36.33Q5.62-36.38 5.86-36.35 6.1-36.33 6.35-36.33L6.35-36.33Q6.88-36.33 7.37-36.67 7.86-37.01 8.45-37.26L8.45-37.26Q8.74-37.16 8.86-37.18 8.98-37.21 9.13-37.21L9.13-37.21Q9.28-37.21 9.77-36.87 10.25-36.52 10.84-36.08 11.43-35.64 11.94-35.25 12.45-34.86 12.6-34.77L12.6-34.77Q13.82-33.84 14.77-32.74 15.72-31.64 16.65-30.52L16.65-30.52Q17.53-29.39 18.55-28.25 19.58-27.1 20.56-26.12L20.56-26.12Q20.9-25.73 21.26-25.44 21.63-25.15 21.97-24.76L21.97-24.76Q22.12-24.56 22.24-24.34 22.36-24.12 22.51-23.88L22.51-23.88Q22.8-23.54 23.19-23.29 23.58-23.05 23.93-22.71L23.93-22.71Q24.17-22.51 24.66-21.92 25.15-21.34 25.15-21.04L25.15-21.04Q25.15-20.85 25.05-20.7 24.95-20.56 24.85-20.36L24.85-20.36Q24.8-20.21 24.8-19.92 24.8-19.63 24.76-19.53L24.76-19.53Q24.27-19.14 24.22-19.04 24.17-18.95 24.07-18.85L24.07-18.85Q23.93-18.65 23.71-18.53 23.49-18.41 23.39-18.16L23.39-18.16Q23.29-18.02 23.32-17.87 23.34-17.72 23.24-17.53L23.24-17.53Q23-16.99 22.46-16.5 21.92-16.02 21.53-15.43L21.53-15.43Q21-14.55 20.46-13.67 19.92-12.79 19.24-11.96L19.24-11.96Q18.95-11.57 18.63-11.21 18.31-10.84 18.02-10.45L18.02-10.45Q17.77-10.16 17.58-9.84 17.38-9.52 17.14-9.13L17.14-9.13Q16.6-8.45 16.11-7.79 15.63-7.13 15.09-6.45L15.09-6.45Q14.5-5.62 13.82-4.81 13.13-4 12.6-3.17L12.6-3.17Q12.06-2.29 11.47-1.56 10.89-0.83 10.21-0.15L10.21-0.15Q10.01 0 9.72 0.29 9.42 0.59 9.13 0.59L9.13 0.59Q8.94 0.59 8.81 0.44 8.69 0.29 8.45 0.29L8.45 0.29Q8.4 0.29 8.15 0.34 7.91 0.39 7.57 0.44L7.57 0.44 6.69 0.54Q5.91 0.93 5.57 0.9 5.22 0.88 4.88 0.93L4.88 0.93Q4.69 0.98 4.57 1.07 4.44 1.17 4.3 1.17L4.3 1.17Q3.96 1.17 3.76 0.85 3.56 0.54 3.17 0.59ZM17.82-20.51L17.82-20.51Q17.82-20.75 17.36-21.19 16.89-21.63 16.65-21.83L16.65-21.83Q16.31-22.12 15.84-22.39 15.38-22.66 15.09-23L15.09-23Q14.84-23.29 14.62-23.61 14.4-23.93 14.16-24.22L14.16-24.22Q13.28-25.2 12.38-26.17 11.47-27.15 10.79-28.32L10.79-28.32Q10.35-28.61 9.96-29 9.57-29.39 9.03-29.64L9.03-29.64Q8.94-29.35 8.96-29.03 8.98-28.71 8.98-28.42L8.98-28.42Q8.98-27.29 8.89-26.22 8.79-25.15 8.79-24.07L8.79-24.07Q8.79-21.44 8.91-18.87 9.03-16.31 9.03-13.72L9.03-13.72Q9.03-12.74 9.06-11.77 9.08-10.79 9.23-9.81L9.23-9.81Q9.13-9.52 9.13-9.28L9.13-9.28Q9.13-9.03 9.23-8.64L9.23-8.64Q9.62-8.89 9.89-9.25 10.16-9.62 10.4-9.96L10.4-9.96Q11.23-11.04 12.04-12.13 12.84-13.23 13.67-14.36L13.67-14.36Q14.21-15.09 14.77-15.8 15.33-16.5 15.87-17.29L15.87-17.29Q16.02-17.48 16.33-17.97 16.65-18.46 16.97-18.97 17.29-19.48 17.55-19.92 17.82-20.36 17.82-20.51Z" opacity="1" transform="matrix(1,0,0,1,0,0)" fill="#00b02b" class="wordmark-text-0" data-fill-palette-color="primary" id="text-0"></path></svg></g></svg></g></svg></g></svg></g></svg></g></svg></g></svg></g><g mask="url(#54a776ce-0a62-4e22-ab05-4b709e86215b)"><g transform="matrix(3.772307692307692, 0, 0, 3.772307692307692, 35.55076923076922, 1)"><svg xmlns="http://www.w3.org/2000/svg" xmlns:xlink="http://www.w3.org/1999/xlink" version="1.1" x="0" y="0" viewBox="6.5 18 86 65" enable-background="new 0 0 100 100" xml:space="preserve" height="65" width="86" class="icon-none" data-fill-palette-color="accent" id="none"><g fill="#2f84ff" data-fill-palette-color="accent"><path d="M35.845 61.275l-10.72-5.09c-1.209-0.572-1.94-1.463-1.94-2.703v-0.318c0-1.24 0.731-2.131 1.94-2.704l10.72-5.089c0.381-0.191 0.731-0.318 1.177-0.318 1.018-0.031 1.94 0.859 1.94 2.004 0 0.922-0.509 1.559-1.336 1.94l-9.606 4.294 9.606 4.295c0.827 0.381 1.336 1.113 1.336 2.004 0 1.177-0.922 2.004-2.1 1.972C36.513 61.562 36.163 61.435 35.845 61.275z" fill="#2f84ff" data-fill-palette-color="accent"></path><path d="M41.889 66.047l12.438-25.988c0.35-0.731 0.922-1.113 1.686-1.113 1.018 0 1.876 0.859 1.876 1.813 0 0.35-0.127 0.7-0.222 0.923L45.229 67.669c-0.35 0.731-0.922 1.113-1.686 1.113-1.018 0-1.876-0.858-1.876-1.813C41.667 66.619 41.793 66.27 41.889 66.047z" fill="#2f84ff" data-fill-palette-color="accent"></path><path d="M64.155 45.371l10.72 5.089c1.208 0.573 1.94 1.464 1.94 2.704v0.318c0 1.24-0.731 2.131-1.94 2.703l-10.72 5.09c-0.381 0.191-0.731 0.318-1.177 0.318-1.018 0.031-1.94-0.859-1.94-2.004 0-0.923 0.509-1.559 1.336-1.94l9.606-4.295-9.606-4.294c-0.827-0.381-1.336-1.113-1.336-2.004 0-1.177 0.923-2.004 2.1-1.973C63.487 45.084 63.837 45.212 64.155 45.371z" fill="#2f84ff" data-fill-palette-color="accent"></path></g><path d="M92.5 21c0-1.657-1.343-3-3-3h-80c-1.657 0-3 1.343-3 3v59c0 1.657 1.343 3 3 3h80c1.657 0 3-1.343 3-3V21zM26 20.833c1.196 0 2.167 0.97 2.167 2.167s-0.97 2.167-2.167 2.167-2.167-0.97-2.167-2.167S24.804 20.833 26 20.833zM20 20.833c1.196 0 2.167 0.97 2.167 2.167s-0.97 2.167-2.167 2.167-2.167-0.97-2.167-2.167S18.804 20.833 20 20.833zM14 20.833c1.196 0 2.167 0.97 2.167 2.167s-0.97 2.167-2.167 2.167-2.167-0.97-2.167-2.167S12.804 20.833 14 20.833zM88.5 79h-78V29h78V79z" fill="#2f84ff" data-fill-palette-color="accent"></path></svg></g></g></svg></g><defs></defs></svg><rect width="395.52" height="247.2" fill="none" stroke="none" visibility="hidden"></rect></g></svg></g></svg>